# xmcd
#
# Track frame offsets:
#	188
#	17713
#	32110
#	46885
#	64810
#	79438
#	95820
#	110185
#	120610
#	133573
#	147875
#	162808
#	175318
#	187348
#
# Disc length: 2669
#
# Revision: 1
# Processed by: cddbd v1.5.1PL0 Copyright (c) Steve Scherf et al.
# Submitted via: ExactAudioCopy v0.95a3
# Normalized: r0:TDELIM( - )
#
DISCID=ce0a6b0e
DTITLE=Various Artist - Country No 1s Vol 1 CD 3
DYEAR=1989
DGENRE=Country
TTITLE0=Eddy Rabbitt - Both to each other
TTITLE1=Alabama - Song of the South
TTITLE2=Jerry Reed - She's got the goldmine
TTITLE3=Restless Heart - I'll still be loving you
TTITLE4=Razzy Bailey - She left love all over me
TTITLE5=Michael Johnson - Give me wings
TTITLE6=Earl Thomas Conley - Holding her and loving you
TTITLE7=Charley Pride - I'm just me
TTITLE8=Ronnie Milsap - What goes on when the sun goes down
TTITLE9=Bobby Bear - Marie Lavaux
TTITLE10=Jerry Reed - Lord, Mr Ford
TTITLE11=Waylon Jennings - I'm a ramblin' man
TTITLE12=Dolly Parton - Jolene
TTITLE13=Elvis Presley - Moody Blue
EXTD=
EXTT0=
EXTT1=
EXTT2=
EXTT3=
EXTT4=
EXTT5=
EXTT6=
EXTT7=
EXTT8=
EXTT9=
EXTT10=
EXTT11=
EXTT12=
EXTT13=
PLAYORDER=
